<svg width="100" height="100" viewBox="0 0 100 100" fill="none" xmlns="http://www.w3.org/2000/svg">
<path d="M23.625 22H74.375C76.3769 22 78 23.791 78 26V37C78 39.2091 76.2091 41 74 41H60C53.3726 41 48 46.3726 48 53V65H20V26C20 23.791 21.6231 22 23.625 22Z" fill="#3969EF"/>
<path d="M48 63H25V27H73V41H60C53.3726 41 48 46.3726 48 53V63Z" fill="#CCDAFF"/>
<path d="M48 61H15V66H48V61Z" fill="#7295F6"/>
<path d="M48 66H15L17.5303 68.829C18.2014 69.579 19.1122 70 20.0615 70H44C46.2091 70 48 68.2091 48 66V66Z" fill="#3969EF"/>
<path d="M52 53C52 48.5817 55.5817 45 60 45H76C80.4183 45 84 48.5817 84 53V69C84 73.4183 80.4183 77 76 77H60C55.5817 77 52 73.4183 52 69V53Z" fill="#DE5833"/>
<path d="M71.8144 60.4644C71.7167 60.5266 71.4033 60.4906 70.9905 60.4436C67.3305 59.8 66.974 61.8884 68.7374 65.0676C67.1406 65.5435 69.0239 70.148 70.5596 73.6055C68.8801 74.2003 65.7882 74.0722 64.3578 73.5445C64.3554 73.5371 64.3531 73.5286 64.3507 73.5213C64.0367 73.4054 63.6472 73.4066 63.465 73.1583C62.9731 69.7752 56.1098 53.6312 64.4951 52.5739C64.5477 52.5587 63.412 52.2057 61.8826 52.5881C59.9708 52.9704 63.7398 47.3826 67.6996 52.2816C72.0025 53.2224 72.3105 60.1483 71.815 60.4638L71.8144 60.4644Z" fill="white"/>
<path d="M73.2898 71.0891C73.2473 71.3636 73.1526 71.5467 72.9842 71.5723C72.6649 71.6211 71.2363 71.2941 70.4244 70.9854C70.3321 71.41 68.1558 71.8121 67.8113 71.2416C67.0215 71.9243 65.5085 72.9145 65.1922 72.7071C64.5864 72.3105 64.0165 69.2563 64.4725 68.6108C65.1652 67.9812 66.6213 68.6664 67.6429 69.0281C67.9893 68.4424 69.6664 68.2204 70.0146 68.7011C70.932 68.0038 72.4629 67.0203 72.6121 67.1997C73.3563 68.0965 73.4504 70.2307 73.2892 71.0897L73.2898 71.0891Z" fill="#4CBA3C"/>
<path fill-rule="evenodd" clip-rule="evenodd" d="M65.5296 61.8693C65.8418 59.654 70.0266 60.3471 71.898 60.0982C73.2618 59.9402 74.2738 59.6046 74.9479 59.3429C76.4957 58.7072 76.7593 59.338 76.0025 60.3282C73.8658 62.8614 69.1135 61.0176 68.2626 62.3275C68.0139 62.7156 68.2063 63.6289 70.1609 63.9169C72.8022 64.3049 74.9719 63.4489 75.2397 63.9663C74.6375 66.7313 64.6098 65.7899 65.5284 61.8699L65.5296 61.8693Z" fill="#FFCC33"/>
<path d="M70.8715 55.4786C70.5947 54.8788 69.1716 54.8831 68.8995 55.4554C68.8747 55.5736 68.9738 55.5424 69.1626 55.4829C69.4935 55.3788 70.0999 55.1879 70.7984 55.5616C70.8535 55.5854 70.9069 55.528 70.8715 55.4786Z" fill="#14307E"/>
<path d="M63.9173 55.6231C63.6531 55.604 63.2241 55.5731 62.8697 55.7701C62.3496 55.9915 62.1818 56.2301 62.0811 56.3936C62.044 56.454 61.9001 56.4479 61.9001 56.3765C61.9355 55.4223 63.5534 54.9623 64.1418 55.5553C64.2132 55.6444 64.1083 55.6368 63.9173 55.6231Z" fill="#14307E"/>
<path d="M70.3644 58.8218C69.2757 58.8163 69.2757 57.1379 70.3644 57.1324C71.4532 57.1379 71.4532 58.8163 70.3644 58.8218Z" fill="#14307E"/>
<path d="M64.8476 58.5616C64.826 59.8563 62.9283 59.8563 62.9067 58.5616C62.9127 57.2731 64.8416 57.2737 64.8476 58.5616Z" fill="#14307E"/>
<path fill-rule="evenodd" clip-rule="evenodd" d="M68 48.9559C61.3482 48.9559 55.9559 54.3482 55.9559 60.9999C55.9559 67.6516 61.3482 73.0439 68 73.0439C74.6517 73.0439 80.044 67.6516 80.044 60.9999C80.044 54.3482 74.6517 48.9559 68 48.9559ZM54.0442 60.9999C54.0442 53.2923 60.2924 47.0441 68 47.0441C75.7075 47.0441 81.9558 53.2923 81.9558 60.9999C81.9558 68.7075 75.7075 74.9557 68 74.9557C60.2924 74.9557 54.0442 68.7075 54.0442 60.9999Z" fill="white"/>
<path d="M90.605 50C90.9112 50 91.2174 50.1201 91.4515 50.3542C91.9198 50.8225 91.9198 51.5849 91.4515 52.0532L89.0502 54.4545C88.5819 54.9228 87.8195 54.9228 87.3512 54.4545C86.8829 53.9863 86.8829 53.2238 87.3512 52.7556L89.7526 50.3542C89.9867 50.1201 90.2929 50 90.599 50H90.605Z" fill="#CCCCCC"/>
<path d="M89.4043 60.806H93.0063C93.6667 60.806 94.207 61.3463 94.207 62.0067C94.207 62.667 93.6667 63.2073 93.0063 63.2073H89.4043C88.7439 63.2073 88.2036 62.667 88.2036 62.0067C88.2036 61.3463 88.7439 60.806 89.4043 60.806Z" fill="#CCCCCC"/>
<path d="M87.3634 69.5661C87.5975 69.332 87.9037 69.2119 88.2099 69.2119H88.2159C88.5221 69.2119 88.8282 69.332 89.0624 69.5661L91.4637 71.9675C91.932 72.4357 91.932 73.1982 91.4637 73.6664C90.9955 74.1347 90.233 74.1347 89.7648 73.6664L87.3634 71.2651C86.8951 70.7968 86.8951 70.0344 87.3634 69.5661Z" fill="#CCCCCC"/>
</svg>
