<svg width="50" height="50" viewBox="0 0 50 50" fill="none" xmlns="http://www.w3.org/2000/svg">
<path d="M39.8923 13.0392C39.6118 13.0397 39.3536 12.8864 39.2199 12.6398C39.1237 12.4637 39.1038 12.256 39.165 12.0649C39.2261 11.8738 39.3629 11.7161 39.5434 11.6286L42.5771 10.0815C42.9438 9.9001 43.3884 10.0379 43.5883 10.3949C43.6845 10.571 43.7043 10.7788 43.6432 10.9699C43.582 11.161 43.4452 11.3186 43.2647 11.4061L40.2311 12.9533C40.1265 13.0083 40.0104 13.0377 39.8923 13.0392Z" fill="#AAAAAA" fill-opacity="0.6"/>
<path d="M44.9483 16.5785H41.4091C40.9902 16.5785 40.6507 16.2389 40.6507 15.8201C40.6507 15.4012 40.9902 15.0616 41.4091 15.0616H44.9483C45.3672 15.0616 45.7067 15.4012 45.7067 15.8201C45.7067 16.2389 45.3672 16.5785 44.9483 16.5785Z" fill="#AAAAAA" fill-opacity="0.6"/>
<path d="M10.5673 13.0392C10.4455 13.0408 10.3254 13.0113 10.2184 12.9533L7.18476 11.4061C7.00526 11.3175 6.86944 11.1598 6.80844 10.9692C6.74743 10.7785 6.76646 10.5713 6.86118 10.3949C7.06106 10.0379 7.50561 9.9001 7.87238 10.0815L10.906 11.6286C11.0865 11.7161 11.2233 11.8738 11.2845 12.0649C11.3456 12.256 11.3258 12.4637 11.2296 12.6398C11.0976 12.8832 10.8441 13.0361 10.5673 13.0392Z" fill="#AAAAAA" fill-opacity="0.6"/>
<path d="M9.05044 16.5785H5.51121C5.09236 16.5785 4.75281 16.2389 4.75281 15.8201C4.75281 15.4012 5.09236 15.0616 5.51121 15.0616H9.05044C9.4693 15.0616 9.80885 15.4012 9.80885 15.8201C9.80885 16.2389 9.4693 16.5785 9.05044 16.5785Z" fill="#AAAAAA" fill-opacity="0.6"/>
<path d="M17.1401 11.0168H33.3195C33.8779 11.0168 34.3307 11.4696 34.3307 12.0281V15.0617H16.1289V12.0281C16.1289 11.4696 16.5816 11.0168 17.1401 11.0168Z" fill="#E6E6E6"/>
<path d="M17.1401 12.5337H33.3195C33.8779 12.5337 34.3307 12.9864 34.3307 13.5449V26.6906H16.1289V13.5449C16.1289 12.9864 16.5816 12.5337 17.1401 12.5337Z" fill="#C0C0C0"/>
<path d="M15.6233 14.0504H34.8363C35.3947 14.0504 35.8475 14.5031 35.8475 15.0616V18.0952H14.6121V15.0616C14.6121 14.5031 15.0648 14.0504 15.6233 14.0504Z" fill="#E6E6E6"/>
<path d="M15.6233 15.5673H34.8363C35.3947 15.5673 35.8475 16.02 35.8475 16.5785V29.7242H14.6121V16.5785C14.6121 16.02 15.0648 15.5673 15.6233 15.5673Z" fill="#C0C0C0"/>
<path d="M14.1065 17.0841H36.3531C36.9116 17.0841 37.3643 17.5368 37.3643 18.0953V21.1289H13.0953V18.0953C13.0953 17.5368 13.548 17.0841 14.1065 17.0841Z" fill="#E6E6E6"/>
<path d="M14.1065 18.6008H36.3531C36.9116 18.6008 37.3643 19.0536 37.3643 19.612V32.7578H13.0953V19.612C13.0953 19.0536 13.548 18.6008 14.1065 18.6008Z" fill="#C0C0C0"/>
<rect x="16.1289" y="30.7354" width="18.2018" height="2.02242" fill="#8FABF9"/>
<path d="M35.3419 26.6906L32.3082 32.7578H18.1513L15.1177 26.6906H11.0729V37.8138C11.0729 38.9308 11.9783 39.8363 13.0953 39.8363H37.3643C38.4812 39.8363 39.3867 38.9308 39.3867 37.8138V26.6906H35.3419Z" fill="#3969EF"/>
<path d="M15.1177 26.6905H13.0953V20.6233H12.0841C11.5256 20.6233 11.0729 21.076 11.0729 21.6345V27.7018C11.0729 28.2602 11.5256 28.713 12.0841 28.713H16.1289L15.1177 26.6905Z" fill="#8FABF9"/>
<path d="M35.3419 26.6905H37.3643V20.6233H38.3755C38.934 20.6233 39.3867 21.076 39.3867 21.6345V27.7018C39.3867 28.2602 38.934 28.713 38.3755 28.713H34.3307L35.3419 26.6905Z" fill="#8FABF9"/>
<path d="M36.8031 18.7122L25.2298 26.9788L13.6565 18.7122C13.3145 18.8821 13.0974 19.2302 13.0953 19.6121V20.047L24.0568 27.8737C24.7589 28.3736 25.7007 28.3736 26.4028 27.8737L37.3643 20.047V19.6121C37.3622 19.2302 37.1451 18.8821 36.8031 18.7122Z" fill="#A6A6A6"/>
</svg>
